<?xml version="1.0" standalone="no"?>
<!DOCTYPE svg PUBLIC "-//W3C//DTD SVG 20010904//EN"
 "http://www.w3.org/TR/2001/REC-SVG-20010904/DTD/svg10.dtd">
<svg version="1.0" xmlns="http://www.w3.org/2000/svg"
 width="700.000000pt" height="700.000000pt" viewBox="0 0 700.000000 700.000000"
 preserveAspectRatio="xMidYMid meet">
<metadata>
Created by potrace 1.11, written by Peter Selinger 2001-2013
</metadata>
<g transform="translate(0.000000,700.000000) scale(0.100000,-0.100000)"
fill="#000000" stroke="none">
<path d="M652 6890 c-62 -9 -115 -17 -117 -18 -3 -1 -11 -2 -19 -2 -9 0 -13
-7 -12 -17 2 -10 7 -38 10 -63 3 -25 8 -55 10 -66 2 -12 7 -37 10 -55 3 -19
10 -59 16 -89 6 -30 14 -66 16 -80 78 -396 280 -926 504 -1316 61 -107 259
-411 283 -436 7 -7 23 -29 37 -48 25 -37 163 -208 221 -274 138 -157 328 -346
479 -476 41 -36 77 -67 80 -70 11 -12 228 -180 298 -230 51 -37 71 -57 68 -69
-16 -53 -191 -657 -206 -711 -21 -75 -24 -85 -120 -410 -39 -135 -80 -274 -90
-310 -10 -36 -52 -184 -95 -330 -91 -312 -132 -453 -295 -1015 -67 -231 -137
-472 -156 -535 -18 -62 -32 -115 -30 -117 2 -2 57 -19 123 -38 66 -19 127 -37
136 -41 12 -4 21 12 40 78 38 124 269 918 277 953 7 27 104 360 150 515 38
128 192 658 231 795 22 77 67 230 99 340 32 110 89 304 125 430 37 127 70 233
74 238 4 4 24 -4 45 -18 20 -14 39 -25 41 -25 2 0 28 -14 57 -31 72 -43 365
-189 458 -229 41 -17 89 -38 106 -46 17 -7 73 -29 125 -49 52 -20 101 -38 109
-42 8 -3 17 -7 20 -8 3 -1 65 -21 139 -45 124 -40 134 -45 146 -75 8 -17 48
-128 90 -246 42 -118 95 -263 116 -324 22 -60 53 -146 68 -190 16 -44 106
-296 201 -560 95 -264 180 -502 190 -530 10 -27 31 -88 48 -135 77 -211 109
-301 194 -540 50 -140 92 -256 92 -257 2 -2 190 63 248 86 l27 10 -18 53 c-26
73 -161 449 -211 588 -23 63 -46 126 -50 140 -5 14 -45 126 -90 250 -45 124
-83 230 -84 235 -2 6 -6 17 -9 25 -3 8 -17 47 -31 85 -27 78 -103 291 -133
375 -11 30 -80 222 -152 425 -73 204 -139 385 -147 404 -8 18 -13 36 -10 39 3
2 52 -5 108 -16 104 -21 301 -55 393 -67 28 -3 61 -8 75 -10 14 -2 57 -7 95
-10 39 -4 84 -9 100 -10 255 -26 778 -21 1040 10 103 13 102 12 141 14 35 1
36 1 31 39 -3 20 -11 85 -18 145 -15 122 -3 113 -134 97 -174 -21 -273 -25
-590 -25 -299 0 -422 5 -555 21 -91 11 -197 25 -216 28 -10 2 -54 9 -96 16
-42 6 -130 22 -195 36 -65 14 -127 27 -138 29 -64 11 -314 82 -444 125 -516
171 -995 418 -1411 728 -100 75 -204 156 -220 172 -3 3 -39 34 -80 70 -179
154 -463 454 -605 640 -27 36 -55 71 -62 78 -7 7 -13 17 -13 21 0 4 -8 16 -18
27 -15 16 -87 124 -178 264 -256 399 -486 999 -570 1490 -2 14 -6 36 -9 50 -3
14 -7 48 -10 75 -8 68 -13 82 -28 81 -6 0 -63 -7 -125 -16z"/>
</g>
</svg>
